<?xml version="1.0" encoding="UTF-8"?>
<svg id="Layer_1" xmlns="http://www.w3.org/2000/svg" baseProfile="tiny" version="1.2" viewBox="0 0 298 184">
  <!-- Generator: Adobe Illustrator 30.1.0, SVG Export Plug-In . SVG Version: 2.1.1 Build 136)  -->
  <path d="M135.7,16.1h0l-4.3,9.6-.9,1.9-3,6.6c2.5-2.7,4.8-5.2,7-7.7,3.5-3.9,6.4-7.5,8.9-10.5h-7.7Z" fill="#fff"/>
  <path d="M176.7,31.3c-4.5-4.8-8.9-9.7-13.2-15h-7.7c3,3.7,6,7.3,9,10.7,15.6,17.9,31.9,32.6,45.4,43.6,11.3,9.2,20.5,15.7,25.3,19-7.4,5.5-14.2,10.6-20.5,15.7v7.7c8.2-6.7,17.3-13.7,27.4-21.1.8-.6,1.3-1.5,1.2-2.5,0-1-.6-1.9-1.4-2.4-.3-.2-16.3-10.3-36.9-28.1-9-7.8-18.8-17-28.6-27.4h0Z" fill="#fff"/>
  <path d="M74.4,100.7c-.3-1.4-.5-2.8-.7-4.2-4.7-3.6-8.5-6.4-11-8.2,9-5.7,17.4-11.6,25.1-17.7,3.5-2.7,6.8-5.5,10-8.2-2.5.6-4.7,1.2-6.8,1.9-.4,0-.8.2-1.1.4-.9.3-1.8.6-2.6.9l-5,1.8c-8.2,6.3-17,12.4-26.5,18.3-.9.5-1.4,1.5-1.4,2.5s.5,2,1.3,2.5c.2,0,8.3,5.6,19.9,14.8-.5-1.6-.9-3.2-1.2-4.8h0Z" fill="#fff"/>
  <path d="M114,140h0Z" fill="#fff"/>
  <path d="M89.6,113.1c.3.5.7,1,1.1,1.5,3.3,4.6,7.5,8.4,12.4,11.3.6.4,1.3.7,1.9,1.1,2.3,1.2,4.8,2.2,7.3,3-8.4-8.3-16.6-15.6-24.1-21.9-.8-.6-1.5-1.3-2.3-1.9.7,1.6,1.4,3.1,2.3,4.7.4.8.9,1.5,1.4,2.3h0Z" fill="#fff"/>
  <path d="M149.5,170.9c.6.8,1.4,1.5,2.1,2.2.8.6,1.6,1.1,2.5,1.6,3.9-5.6,11.7-15.9,25.4-29.8,2.2-2.2,4.5-4.5,7-6.9v-8.3c-8.3,7.7-14.9,14.6-20.4,20.6-8.3,9.1-13.5,16.1-16.6,20.7h0Z" fill="#fff"/>
  <path d="M149.5,0c-1,0-1.9.5-2.4,1.3,0,0-1.4,2.1-4,5.5h12.9c-1.4-1.8-2.8-3.7-4.1-5.6-.6-.8-1.5-1.2-2.5-1.2Z" fill="#fff"/>
  <path d="M145.6,180.2c5.8,2.5,11.9,3.7,18.3,3.8s12.6-1.1,18.5-3.5c5.9-2.4,11.2-5.9,15.8-10.4,4.6-4.7,8.2-9.9,10.6-15.7s3.7-11.9,3.8-18.3v-21.4c0,0,.2-3.9.2-3.9v-9.4h0v-3.2c0-.9,0-1.8-.2-2.7-.5-4.3-1.6-8.6-3.2-12.6h0c-1-2.5-2.2-4.8-3.6-7.1-1.9-3.1-4.2-6.1-6.9-8.8-4.3-4.3-9.2-7.8-14.6-10.1-.3,0-.7-.3-1-.4-5.9-2.5-12-3.7-18.4-3.8s-10.6.8-15.7,2.5l-.6.2-.5.2,1,.5c1.8.9,3.6,2.1,5.4,3.3l.2.2h.3q0,0,0-.2c2.8-1.1,6.1-1.7,9.7-1.7,7.6,0,13.2,2.5,16.7,7.2,3.6,4.8,5.7,10.1,6.4,15.8.7,5.8,1.1,12.6,1,20.4v17.1c0,0,0,3.4,0,3.4v14h0v3c0,6.5-.6,12.3-1.3,17.4-.8,5.7-3,11-6.7,15.8-3.6,4.7-9.1,7.1-16.7,7-4.4,0-8.1-.9-11.1-2.5-.9-.5-1.7-1-2.5-1.6-1.2-.9-2.2-2-3.1-3.2-1.2-1.6-2.2-3.3-3.1-5-1.1-2.1-1.9-4.2-2.5-6.5-.4-1.5-.7-3-.9-4.5,0-.3,0-.6,0-.9,0-1-.2-2-.3-3,0-.5,0-1,0-1.6-.3-3.6-.4-7.5-.5-11.6v-.7l-.6.2c-2.5.8-5.2,1.4-7.8,1.8-1,.2-2,.3-3.1.4-1.1,0-2.2.2-3.3.2h-2.6c-1.4,0-2.9,0-4.3-.3-.5,0-1.1,0-1.6-.2h-.6v.6c0,.7.2,1.3.3,2,0,.4,0,.7.2,1.1.6,3.5,1.5,6.9,2.9,10,2.4,5.9,5.9,11.2,10.4,15.8,4.7,4.6,9.9,8.2,15.7,10.6l-.2.2Z" fill="#fff"/>
  <path d="M123.4,131.5h.2c7,0,11.8-1.9,14.9-5.9.3-.4.6-.8.9-1.1l.2-23.6c0-7.8.5-14.6,1.3-20.4.3-2.3.9-4.6,1.7-6.8-.4-1-.9-1.9-1.5-2.7-1.8-2.9-4.1-5.2-7.1-6.9-1.1.9-2.2,1.9-3.2,2.9-4.6,4.5-8.1,9.6-10.5,15.5-2.5,5.8-3.7,11.9-3.7,18.3l-.2,23.7v6.3c1.1.2,2.2.3,3.3.5,1.2,0,2.5.2,3.7.2h0Z" fill="#fff"/>
  <path d="M87.8,63.1c1-.4,2.1-.7,3.2-1,1.3-.4,2.7-.8,4.2-1.2,2-.5,4-1,6.2-1.4h0c1.2-.3,2.4-.5,3.6-.7,1.5-.3,3-.5,4.5-.6,1.4-.2,2.8-.3,4.1-.3s2.7,0,4,0c3.5,0,6.3.3,8.5.8,2.8.6,5.3,1.5,7.5,2.7,1,.5,1.9,1,2.7,1.5,2.9,1.9,5.2,4.3,7,7.1.2.3.3.5.5.8.6,1.1,1.2,2.3,1.7,3.6,2.1,5.1,3.1,11.2,3.1,18.5s-.5,13.8-1.3,19.4c-.7,4.5-2.3,8.8-4.9,12.7-.5.8-1.1,1.6-1.7,2.4-.4.5-.9,1-1.3,1.5-3.2,3.2-7.8,4.9-13.5,5.2h-3.5c-1.3,0-2.6-.2-3.8-.3-.6,0-1.2-.2-1.8-.3-.4,0-.9-.2-1.3-.3-.5,0-.9-.2-1.4-.3-1.5-.4-2.9-.8-4.3-1.3-2.6-.9-5.1-2.1-7.5-3.6-.5-.3-1.1-.7-1.6-1-2-1.3-3.8-2.7-5.6-4.3-1.7-1.5-3.2-3.2-4.7-5-1.4-1.8-2.8-3.7-3.9-5.7-.5-.9-1-1.9-1.5-2.8-.9-1.8-1.6-3.7-2.2-5.6-.3-1-.6-2.1-.8-3.1-.3-1.2-.5-2.5-.7-3.8-.2-1.1-.3-2.3-.4-3.5v-3.4h-5.1v2.7c0,1.1,0,2.3.2,3.4,0,.9.2,1.8.4,2.7.2,1.5.5,3,.9,4.4.5,1.8,1,3.5,1.7,5.2.9,2.2,1.9,4.4,3.1,6.5,4.3,7.4,10.1,13.3,17.5,17.7,1.9,1.1,3.8,2.1,5.8,2.9,2,.8,4,1.5,6,2.1.9.2,1.7.5,2.6.6.9.2,1.8.4,2.7.5h0c1.5.2,3,.4,4.5.5h6.1c1.1,0,2.1-.2,3.2-.3,3.3-.4,6.5-1.1,9.5-2.2.9-.3,1.7-.6,2.5-.9h0c5.9-2.4,11.2-5.9,15.8-10.4,4.4-4.4,7.7-9.3,9.8-14.7s3.3-10.9,3.4-16.7c0-6.7-1.5-12.7-4.4-18-3-5.3-6.7-9.6-11.1-13-.3-.2-.5-.4-.8-.6-.9-.6-1.7-1.3-2.6-1.8-2.1-1.4-4.3-2.6-6.3-3.5-.8-.3-1.6-.7-2.4-.9-.3,0-.6-.2-.9-.3-7-2.2-14.6-3.3-22.9-3.4h-2.6l.9-1.9.6-1.3.4-.9h0l1.8-4,2.2-5,3.6-8,1.1-2.4,3-6.6,3.7-8.2h31.5v-5.1h-24.5l-31.3-.2-24.7,55.3,1.1-.4c.4-.2.8-.3,1.3-.4l-.3-.2Z" fill="#fff"/>
</svg>