<?xml version="1.0" encoding="UTF-8"?>
<svg id="Layer_1" xmlns="http://www.w3.org/2000/svg" xmlns:xmpTPg="http://ns.adobe.com/xap/1.0/t/pg/" xmlns:xmpGImg="http://ns.adobe.com/xap/1.0/g/img/" xmlns:xmpG="http://ns.adobe.com/xap/1.0/g/" xmlns:xmp="http://ns.adobe.com/xap/1.0/" xmlns:x="adobe:ns:meta/" xmlns:stDim="http://ns.adobe.com/xap/1.0/sType/Dimensions#" xmlns:rdf="http://www.w3.org/1999/02/22-rdf-syntax-ns#" xmlns:dc="http://purl.org/dc/elements/1.1/" version="1.1" viewBox="0 0 298 197">
  <!-- Generator: Adobe Illustrator 30.1.0, SVG Export Plug-In . SVG Version: 2.1.1 Build 136)  -->
  <path d="M136.9,43.7h0l-3.9,8.8-.8,1.7-2.7,6c2.3-2.5,4.4-4.7,6.4-7,3.2-3.6,5.8-6.8,8.1-9.6h-7.1Z" fill="#fff"/>
  <path d="M174.3,57.6c-4.1-4.4-8.1-8.9-12.1-13.7h-7c2.7,3.4,5.5,6.7,8.2,9.8,14.2,16.3,29.1,29.8,41.5,39.8,10.3,8.4,18.7,14.3,23.1,17.3-6.8,5-13,9.7-18.7,14.3v7c7.5-6.1,15.8-12.5,25-19.3.7-.5,1.2-1.4,1.1-2.3,0-.9-.5-1.7-1.3-2.2-.3-.2-14.9-9.4-33.7-25.7-8.2-7.1-17.2-15.5-26.1-25h0v-.2.2Z" fill="#fff"/>
  <path d="M80.9,120.9c-.3-1.3-.5-2.6-.6-3.8-4.3-3.3-7.8-5.8-10-7.5,8.2-5.2,15.9-10.6,22.9-16.2,3.2-2.5,6.2-5,9.1-7.5-2.3.5-4.3,1.1-6.2,1.7-.4,0-.7.2-1,.4-.8.3-1.6.5-2.4.8l-4.6,1.6c-7.5,5.8-15.5,11.3-24.2,16.7-.8.5-1.3,1.4-1.3,2.3s.5,1.8,1.2,2.3c.2,0,7.6,5.1,18.2,13.5-.5-1.5-.8-2.9-1.1-4.4h0Z" fill="#fff"/>
  <path d="M117,156.8h0Z" fill="#fff"/>
  <path d="M94.8,132.3c.3.5.6.9,1,1.4,3,4.2,6.8,7.7,11.3,10.3.5.4,1.2.6,1.7,1,2.1,1.1,4.4,2,6.7,2.7-7.7-7.6-15.2-14.2-22-20-.7-.5-1.4-1.2-2.1-1.7.6,1.5,1.3,2.8,2.1,4.3.4.7.8,1.4,1.3,2.1h0Z" fill="#fff"/>
  <path d="M149.5,185c.5.7,1.3,1.4,1.9,2,.7.5,1.5,1,2.3,1.5,3.6-5.1,10.7-14.5,23.2-27.2,2-2,4.1-4.1,6.4-6.3v-7.6c-7.6,7-13.6,13.3-18.6,18.8-7.6,8.3-12.3,14.7-15.2,18.9h0Z" fill="#fff"/>
  <path d="M149.5,29c-.9,0-1.7.5-2.2,1.2,0,0-1.3,1.9-3.7,5h11.8c-1.3-1.6-2.6-3.4-3.7-5.1-.5-.7-1.4-1.1-2.3-1.1h0Z" fill="#fff"/>
  <path d="M145.9,193.5c5.3,2.3,10.9,3.4,16.7,3.5s11.5-1,16.9-3.2,10.2-5.4,14.4-9.5c4.2-4.3,7.5-9,9.7-14.3s3.4-10.9,3.5-16.7v-19.5l.2-3.6v-8.6h0v-2.9c0-.8,0-1.6-.2-2.5-.5-3.9-1.5-7.9-2.9-11.5h0c-.9-2.3-2-4.4-3.3-6.5-1.7-2.8-3.8-5.6-6.3-8-3.9-3.9-8.4-7.1-13.3-9.2-.3,0-.6-.3-.9-.4-5.4-2.3-11-3.4-16.8-3.5s-9.7.7-14.3,2.3l-.5.2-.5.2.9.5c1.6.8,3.3,1.9,4.9,3l.2.2h.3v-.2c2.6-1,5.6-1.6,8.9-1.6,6.9,0,12.1,2.3,15.2,6.6,3.3,4.4,5.2,9.2,5.8,14.4.6,5.3,1,11.5.9,18.6v31.5h0v2.7c0,5.9-.5,11.2-1.2,15.9-.7,5.2-2.7,10-6.1,14.4-3.3,4.3-8.3,6.5-15.2,6.4-4,0-7.4-.8-10.1-2.3-.8-.5-1.6-.9-2.3-1.5-1.1-.8-2-1.8-2.8-2.9-1.1-1.5-2-3-2.8-4.6-1-1.9-1.7-3.8-2.3-5.9-.4-1.4-.6-2.7-.8-4.1v-.8c0-.9-.2-1.8-.3-2.7v-1.5c-.3-3.3-.4-6.8-.5-10.6v-.6l-.5.2c-2.3.7-4.7,1.3-7.1,1.6-.9.2-1.8.3-2.8.4-1,0-2,.2-3,.2h-2.4c-1.3,0-2.6,0-3.9-.3-.5,0-1,0-1.5-.2h-.5v.5c0,.6.2,1.2.3,1.8,0,.4,0,.6.2,1,.5,3.2,1.4,6.3,2.6,9.1,2.2,5.4,5.4,10.2,9.5,14.4,4.3,4.2,9,7.5,14.3,9.7l-.2.2h0v.2Z" fill="#fff"/>
  <path d="M125.6,149.1h.2c6.4,0,10.8-1.7,13.6-5.4.3-.4.5-.7.8-1l.2-21.5c0-7.1.5-13.3,1.2-18.6.3-2.1.8-4.2,1.6-6.2-.4-.9-.8-1.7-1.4-2.5-1.6-2.6-3.7-4.7-6.5-6.3-1,.8-2,1.7-2.9,2.6-4.2,4.1-7.4,8.8-9.6,14.2-2.3,5.3-3.4,10.9-3.4,16.7l-.2,21.6v5.8c1,.2,2,.3,3,.5,1.1,0,2.3.2,3.4.2h0Z" fill="#fff"/>
  <path d="M93.1,86.6c.9-.4,1.9-.6,2.9-.9,1.2-.4,2.5-.7,3.8-1.1,1.8-.5,3.7-.9,5.7-1.3h0c1.1-.3,2.2-.5,3.3-.6,1.4-.3,2.7-.5,4.1-.5,1.3-.2,2.6-.3,3.7-.3h3.7c3.2,0,5.8.3,7.8.7,2.6.5,4.8,1.4,6.8,2.5.9.5,1.7.9,2.5,1.4,2.6,1.7,4.7,3.9,6.4,6.5.2.3.3.5.5.7.5,1,1.1,2.1,1.6,3.3,1.9,4.7,2.8,10.2,2.8,16.9s-.5,12.6-1.2,17.7c-.6,4.1-2.1,8-4.5,11.6-.5.7-1,1.5-1.6,2.2-.4.5-.8.9-1.2,1.4-2.9,2.9-7.1,4.5-12.3,4.7h-3.2c-1.2,0-2.4-.2-3.5-.3-.5,0-1.1-.2-1.6-.3-.4,0-.8-.2-1.2-.3-.5,0-.8-.2-1.3-.3-1.4-.4-2.6-.7-3.9-1.2-2.4-.8-4.7-1.9-6.8-3.3-.5-.3-1-.6-1.5-.9-1.8-1.2-3.5-2.5-5.1-3.9s-2.9-2.9-4.3-4.6c-1.3-1.6-2.6-3.4-3.6-5.2-.5-.8-.9-1.7-1.4-2.6-.8-1.6-1.5-3.4-2-5.1-.3-.9-.5-1.9-.7-2.8-.3-1.1-.5-2.3-.6-3.5-.2-1-.3-2.1-.4-3.2v-3.1h-4.7v2.5c0,1,0,2.1.2,3.1,0,.8.2,1.6.4,2.5.2,1.4.5,2.7.8,4,.5,1.6.9,3.2,1.6,4.7.8,2,1.7,4,2.8,5.9,3.9,6.8,9.2,12.1,16,16.2,1.7,1,3.5,1.9,5.3,2.6,1.8.7,3.7,1.4,5.5,1.9.8.2,1.6.5,2.4.5.8.2,1.6.4,2.5.5h0c1.4.2,2.7.4,4.1.5h5.6c1,0,1.9-.2,2.9-.3,3-.4,5.9-1,8.7-2,.8-.3,1.6-.5,2.3-.8h0c5.4-2.2,10.2-5.4,14.4-9.5,4-4,7-8.5,8.9-13.4s3-10,3.1-15.2c0-6.1-1.4-11.6-4-16.4-2.7-4.8-6.1-8.8-10.1-11.9-.3-.2-.5-.4-.7-.5-.8-.5-1.6-1.2-2.4-1.6-1.9-1.3-3.9-2.4-5.8-3.2-.7-.3-1.5-.6-2.2-.8-.3,0-.5-.2-.8-.3-6.4-2-13.3-3-20.9-3.1h-2.4l.8-1.7.5-1.2.4-.8h0l1.6-3.7,2-4.6,3.3-7.3,1-2.2,2.7-6,3.4-7.5h28.8v-4.7h-22.4l-28.6-.2-22.6,50.5,1-.4c.4-.2.7-.3,1.2-.4l-.3-.2h0v.2Z" fill="#fff"/>
  <metadata>
    <x:xmpmeta xmlns:x="adobe:ns:meta/">
      <rdf:RDF xmlns:rdf="http://www.w3.org/1999/02/22-rdf-syntax-ns#">
        <rdf:Description rdf:about="" xmlns:dc="http://purl.org/dc/elements/1.1/" xmlns:stDim="http://ns.adobe.com/xap/1.0/sType/Dimensions#" xmlns:xmp="http://ns.adobe.com/xap/1.0/" xmlns:xmpG="http://ns.adobe.com/xap/1.0/g/" xmlns:xmpGImg="http://ns.adobe.com/xap/1.0/g/img/" xmlns:xmpTPg="http://ns.adobe.com/xap/1.0/t/pg/">
          <xmp:CreatorTool>Adobe Illustrator 30.1 (Macintosh)
          </xmp:CreatorTool>
          <xmp:CreateDate>2026-01-15T16:14:44+01:00
          </xmp:CreateDate>
          <xmp:Thumbnails>
            <rdf:Alt>
              <rdf:li rdf:parseType="Resource">
                <xmpGImg:width>256
                </xmpGImg:width>
                <xmpGImg:height>252
                </xmpGImg:height>
                <xmpGImg:format>JPEG
                </xmpGImg:format>
                <xmpGImg:image>/9j/4AAQSkZJRgABAgEAAAAAAAD/7QAsUGhvdG9zaG9wIDMuMAA4QklNA+0AAAAAABAAAAAAAAEA
AQAAAAAAAQAB/+4ADkFkb2JlAGTAAAAAAf/bAIQABgQEBAUEBgUFBgkGBQYJCwgGBggLDAoKCwoK
DBAMDAwMDAwQDA4PEA8ODBMTFBQTExwbGxscHx8fHx8fHx8fHwEHBwcNDA0YEBAYGhURFRofHx8f
Hx8fHx8fHx8fHx8fHx8fHx8fHx8fHx8fHx8fHx8fHx8fHx8fHx8fHx8fHx8f/8AAEQgA/AEAAwER
AAIRAQMRAf/EAaIAAAAHAQEBAQEAAAAAAAAAAAQFAwIGAQAHCAkKCwEAAgIDAQEBAQEAAAAAAAAA
AQACAwQFBgcICQoLEAACAQMDAgQCBgcDBAIGAnMBAgMRBAAFIRIxQVEGE2EicYEUMpGhBxWxQiPB
UtHhMxZi8CRygvElQzRTkqKyY3PCNUQnk6OzNhdUZHTD0uIIJoMJChgZhJRFRqS0VtNVKBry4/PE
1OT0ZXWFlaW1xdXl9WZ2hpamtsbW5vY3R1dnd4eXp7fH1+f3OEhYaHiImKi4yNjo+Ck5SVlpeYmZ
qbnJ2en5KjpKWmp6ipqqusra6voRAAICAQIDBQUEBQYECAMDbQEAAhEDBCESMUEFURNhIgZxgZEy
obHwFMHR4SNCFVJicvEzJDRDghaSUyWiY7LCB3PSNeJEgxdUkwgJChgZJjZFGidkdFU38qOzwygp
0+PzhJSktMTU5PRldYWVpbXF1eX1RlZmdoaWprbG1ub2R1dnd4eXp7fH1+f3OEhYaHiImKi4yNjo
+DlJWWl5iZmpucnZ6fkqOkpaanqKmqq6ytrq+v/aAAwDAQACEQMRAD8A9U4q7FXYq7FXYq7FXYq7
FXYq7FXYq7FXYq7FXYq7FXYq7FXYq7FXYq7FXYq7FXYq7FXYq7FXYq7FXYq7FXYq7FXYq7FXYq7F
XYq7FXYq7FXYq7FXYq7FXYq7FXYq7FXYq7FXYq7FXYq7FXYq7FXYq7FXYq7FXYq7FXYq7FXYq7FX
Yq7FXYq7FXYq7FXYq7FXYq7FXYq7FXYq7FXYq7FXYq7FXYq7FXYq7FXYq7FXYq7FXYq7FXYq7FXY
q7FXYq7FXYq7FXYq7FXYq7FXYq7FXYq7FXYq7FXYq7FXYq7FXYq7FXYq7FXYq7FXYq7FXYq7FXYq
7FXYq7FXYq7FXYq7FXYq7FXYq7FXYq7FXYq7FXYq7FXYq7FXYq7FXYq7FXYq7FXYq7FXYq7FXYq7
FXYq7FXYq7FXYq7FXYq7FXYq7FXYq7FXYq7FXYq7FXYq7FXYq7FXYq7FXYq7FXYq7FXYq7FXYq7F
XYq7FXYq7FXYq7FXYq7FXYq7FXYq7FXYq7FXYq7FXYq7FXYq7FXYq7FXYq7FXYq7FXYq7FXYq7FX
Yq7FXYq7FXYq7FXYq7FXYq7FXYq7FXYq7FXYq7FXYq7FXYq7FXYq7FXYq7FXYq7FXYq7FXYq7FXY
q7FXYq7FXYq7FXYq7FXYq7FXYq7FXYq7FXYq7FXYq7FXYq7FXYq7FXYq7FXYq7FXYq7FXYq7FXYq
7FXYq7FXYq7FXYq7FXYq7FXYq7FXYq7FXYq7FXYq7FXYq7FXYq7FXYq7FXYq7FXYq7FXYq7FXYq7
FXYq7FXYq7FXYq7FXYq7FXYq7FXYq7FXYq7FXYq7FXYq7FXYq7FXYq7FXYq7FXYq7FXYq7FXYq7F
XYq7FXYq7FXYq7FXYq7FXYq7FXYq7FXYq7FXYq7FXYq7FXYq7FXYq7FXYq7FXYq7FXYq7FXYq7FX
Yq7FXYq7FXYq7FXYq7FXYq7FXYq7FXYq7FXYq7FXYq7FXYq7FXYq7FXYq7FXYq7FXYq7FXYq7FXY
q7FXYq7FXYq7FXYq7FXYq7FXYq7FXYq7FXYq7FXYq7FXYq7FXYq7FXYq7FXYq7FXYq7FXYq7FXYq
7FXYq7FXYq7FXYq7FXYq7FXYq7FXYq7FXYq7FXYq7FXYq7FXYq7FXYq7FXYq7FXYq7FXYq7FXYq7
FXYq7FXYq7FXYq7FXYq7FXYq7FXYq7FXYq7FXYq7FXYq7FXYq7FXYq7FXYq7FXYq7FXYq7FXYq7F
XYq7FXYq7FXYq7FXYq7FXYq7FXYq7FXYq7FXYq7FXYq7FXYq7FXYq7FXYq7FXYq7FXYq7FXYq7FX
Yq7FXYq7FXYq7FXYq7FXYq7FXYq7FXYq7FXYq7FXYq7FXYq7FXYq7FXYq7FXYq7FXYq7FXYq7FXY
q7FXYq7FXYq7FXYq7FXYq7FXYq7FXYq7FXYq7FXYq7FXYq7FXYq7FXYq7FXYq7FXYq7FXYq7FXYq
7FXYq7FXYq7FXYq7FXYq7FXYq7FXYq7FXYq7FXYq7FXYq7FXYq7FXYq7FXYq7FXYq7FXYq7FXYq7
FXYq7FXYq7FXYq7FXYq7FXYq7FXYq7FXYq7FXYq7FXYq7FXYq7FXYq7FXYq7FXYq7FXYq7FXYq7F
XYq7FXYq7FXYq7FXYq7FXYq7FXYq7FXYq7FXYq7FXYq7FXYq7FXYq7FXYq7FXYq7FXYq7FXYq7FX
Yq7FXYq7FXYq7FXYq7FXYq7FXYq7FXYq7FXYq7FXYq7FXYq7FXYq7FXYq7FXYq7FXYq7FXYq7FXY
q7FXYq7FXYq7FXYq7FXYq7FXYq7FXYq7FXYq7FXYq7FXYq7FXYq7FXYq7FXYq7FXYq7FXYq7FXYq
7FXYq7FXYq7FXYq7FXYq7FXYq7FXYq7FXYq7FXYq7FXYq7FXYq7FXYq7FXYq7FXYq7FXYq7FXYq7
FXYq7FXYq7FXYq7FXYq7FXYq7FXYq7FXYq7FXYq7FXYq7FXYq7FXYq7FXYq7FXYq7FXYq7FXYq7F
XYq7FXYq7FXYq7FXYq7FXYq7FXYq7FXYq7FXYq7FXYq7FXYq7FXYq7FXYq7FXYq7FXYq7FXYq7FX
Yq7FXYq7FXYq7FXYq7FXYq7FXYq7FXYq7FXYq7FXYq7FXYq7FXYq7FXYq7FXYq7FXYq7FXYq7FXY
q7FXYq7FXYq7FXYq7FXYq7FXYq7FXYq7FXYq7FXYq7FXYq7FXYq7FXYq7FXYq7FXYq7FXYq7FXYq
7FXYq7FXYq7FXYq7FXYq7FXYq7FXYq7FXYq7FXYq7FXYq7FXYq7FXYq7FXYq7FXYq7FXYq7FXYq7
FXYq7FXYq7FXYq7FXYq7FXYq7FXYq7FXYq7FXYq7FXYq7FXYq7FXYq7FXYq7FXYq7FXYq7FXYq7F
XYq7FXYq7FXYq7FXYq7FXYq7FXYq7FXYq7FXYq7FXYq7FXYq7FXYq7FXYq7FXYq7FXYq7FXYq7FX
Yq7FXYq7FXYq7FXYq7FXYq7FXYq7FXYq7FXYq7FXYq7FXYq7FXYq7FXYq7FXYq7FXYq7FXYq7FXY
q7FXYq7FXYq7FXYq7FXYq7FXYq7FXYq7FX//2Q==
                </xmpGImg:image>
              </rdf:li>
            </rdf:Alt>
          </xmp:Thumbnails>
          <xmpTPg:MaxPageSize rdf:parseType="Resource">
            <stDim:w>298.000000
            </stDim:w>
            <stDim:h>184.000000
            </stDim:h>
            <stDim:unit>Pixels
            </stDim:unit>
          </xmpTPg:MaxPageSize>
          <xmpTPg:NPages>1
          </xmpTPg:NPages>
          <xmpTPg:HasVisibleTransparency>False
          </xmpTPg:HasVisibleTransparency>
          <xmpTPg:HasVisibleOverprint>False
          </xmpTPg:HasVisibleOverprint>
          <xmpTPg:SwatchGroups>
            <rdf:Seq>
              <rdf:li rdf:parseType="Resource">
                <xmpG:groupName>Default Swatch Group
                </xmpG:groupName>
                <xmpG:groupType>0
                </xmpG:groupType>
              </rdf:li>
            </rdf:Seq>
          </xmpTPg:SwatchGroups>
          <dc:format>image/svg+xml
          </dc:format>
        </rdf:Description>
      </rdf:RDF>
    </x:xmpmeta>
    <sfw xmlns="http://ns.adobe.com/SaveForWeb/1.0/">
      <slices/>
      <sliceSourceBounds x="62.6" y="-0.01" width="172.81" height="168.01" bottomLeftOrigin="true"/>
    </sfw>
  </metadata>
  <metadata><?xpacket begin="﻿" id="W5M0MpCehiHzreSzNTczkc9d"?>
<x:xmpmeta xmlns:x="adobe:ns:meta/" x:xmptk="Adobe XMP Core 9.1-c003 1.000000, 0000/00/00-00:00:00        ">
   <rdf:RDF xmlns:rdf="http://www.w3.org/1999/02/22-rdf-syntax-ns#">
      <rdf:Description rdf:about=""
            xmlns:xmp="http://ns.adobe.com/xap/1.0/"
            xmlns:xmpGImg="http://ns.adobe.com/xap/1.0/g/img/"
            xmlns:xmpTPg="http://ns.adobe.com/xap/1.0/t/pg/"
            xmlns:stDim="http://ns.adobe.com/xap/1.0/sType/Dimensions#"
            xmlns:xmpG="http://ns.adobe.com/xap/1.0/g/"
            xmlns:dc="http://purl.org/dc/elements/1.1/">
         <xmp:CreatorTool>Adobe Illustrator 30.1 (Macintosh)</xmp:CreatorTool>
         <xmp:CreateDate>2026-01-15T16:16:48+01:00</xmp:CreateDate>
         <xmp:Thumbnails>
            <rdf:Alt>
               <rdf:li rdf:parseType="Resource">
                  <xmpGImg:width>256</xmpGImg:width>
                  <xmpGImg:height>252</xmpGImg:height>
                  <xmpGImg:format>JPEG</xmpGImg:format>
                  <xmpGImg:image>/9j/4AAQSkZJRgABAgEAAAAAAAD/7QAsUGhvdG9zaG9wIDMuMAA4QklNA+0AAAAAABAAAAAAAAEA&#xA;AQAAAAAAAQAB/+4ADkFkb2JlAGTAAAAAAf/bAIQABgQEBAUEBgUFBgkGBQYJCwgGBggLDAoKCwoK&#xA;DBAMDAwMDAwQDA4PEA8ODBMTFBQTExwbGxscHx8fHx8fHx8fHwEHBwcNDA0YEBAYGhURFRofHx8f&#xA;Hx8fHx8fHx8fHx8fHx8fHx8fHx8fHx8fHx8fHx8fHx8fHx8fHx8fHx8fHx8f/8AAEQgA/AEAAwER&#xA;AAIRAQMRAf/EAaIAAAAHAQEBAQEAAAAAAAAAAAQFAwIGAQAHCAkKCwEAAgIDAQEBAQEAAAAAAAAA&#xA;AQACAwQFBgcICQoLEAACAQMDAgQCBgcDBAIGAnMBAgMRBAAFIRIxQVEGE2EicYEUMpGhBxWxQiPB&#xA;UtHhMxZi8CRygvElQzRTkqKyY3PCNUQnk6OzNhdUZHTD0uIIJoMJChgZhJRFRqS0VtNVKBry4/PE&#xA;1OT0ZXWFlaW1xdXl9WZ2hpamtsbW5vY3R1dnd4eXp7fH1+f3OEhYaHiImKi4yNjo+Ck5SVlpeYmZ&#xA;qbnJ2en5KjpKWmp6ipqqusra6voRAAICAQIDBQUEBQYECAMDbQEAAhEDBCESMUEFURNhIgZxgZEy&#xA;obHwFMHR4SNCFVJicvEzJDRDghaSUyWiY7LCB3PSNeJEgxdUkwgJChgZJjZFGidkdFU38qOzwygp&#xA;0+PzhJSktMTU5PRldYWVpbXF1eX1RlZmdoaWprbG1ub2R1dnd4eXp7fH1+f3OEhYaHiImKi4yNjo&#xA;+DlJWWl5iZmpucnZ6fkqOkpaanqKmqq6ytrq+v/aAAwDAQACEQMRAD8A9U4q7FXYq7FXYq7FXYq7&#xA;FXYq7FXYq7FXYq7FXYq7FXYq7FXYq7FXYq7FXYq7FXYq7FXYq7FXYq7FXYq7FXYq7FXYq7FXYq7F&#xA;XYq7FXYq7FXYq7FXYq7FXYq7FXYq7FXYq7FXYq7FXYq7FXYq7FXYq7FXYq7FXYq7FXYq7FXYq7FX&#xA;Yq7FXYq7FXYq7FXYq7FXYq7FXYq7FXYq7FXYq7FXYq7FXYq7FXYq7FXYq7FXYq7FXYq7FXYq7FXY&#xA;q7FXYq7FXYq7FXYq7FXYq7FXYq7FXYq7FXYq7FXYq7FXYq7FXYq7FXYq7FXYq7FXYq7FXYq7FXYq&#xA;7FXYq7FXYq7FXYq7FXYq7FXYq7FXYq7FXYq7FXYq7FXYq7FXYq7FXYq7FXYq7FXYq7FXYq7FXYq7&#xA;FXYq7FXYq7FXYq7FXYq7FXYq7FXYq7FXYq7FXYq7FXYq7FXYq7FXYq7FXYq7FXYq7FXYq7FXYq7F&#xA;XYq7FXYq7FXYq7FXYq7FXYq7FXYq7FXYq7FXYq7FXYq7FXYq7FXYq7FXYq7FXYq7FXYq7FXYq7FX&#xA;Yq7FXYq7FXYq7FXYq7FXYq7FXYq7FXYq7FXYq7FXYq7FXYq7FXYq7FXYq7FXYq7FXYq7FXYq7FXY&#xA;q7FXYq7FXYq7FXYq7FXYq7FXYq7FXYq7FXYq7FXYq7FXYq7FXYq7FXYq7FXYq7FXYq7FXYq7FXYq&#xA;7FXYq7FXYq7FXYq7FXYq7FXYq7FXYq7FXYq7FXYq7FXYq7FXYq7FXYq7FXYq7FXYq7FXYq7FXYq7&#xA;FXYq7FXYq7FXYq7FXYq7FXYq7FXYq7FXYq7FXYq7FXYq7FXYq7FXYq7FXYq7FXYq7FXYq7FXYq7F&#xA;XYq7FXYq7FXYq7FXYq7FXYq7FXYq7FXYq7FXYq7FXYq7FXYq7FXYq7FXYq7FXYq7FXYq7FXYq7FX&#xA;Yq7FXYq7FXYq7FXYq7FXYq7FXYq7FXYq7FXYq7FXYq7FXYq7FXYq7FXYq7FXYq7FXYq7FXYq7FXY&#xA;q7FXYq7FXYq7FXYq7FXYq7FXYq7FXYq7FXYq7FXYq7FXYq7FXYq7FXYq7FXYq7FXYq7FXYq7FXYq&#xA;7FXYq7FXYq7FXYq7FXYq7FXYq7FXYq7FXYq7FXYq7FXYq7FXYq7FXYq7FXYq7FXYq7FXYq7FXYq7&#xA;FXYq7FXYq7FXYq7FXYq7FXYq7FXYq7FXYq7FXYq7FXYq7FXYq7FXYq7FXYq7FXYq7FXYq7FXYq7F&#xA;XYq7FXYq7FXYq7FXYq7FXYq7FXYq7FXYq7FXYq7FXYq7FXYq7FXYq7FXYq7FXYq7FXYq7FXYq7FX&#xA;Yq7FXYq7FXYq7FXYq7FXYq7FXYq7FXYq7FXYq7FXYq7FXYq7FXYq7FXYq7FXYq7FXYq7FXYq7FXY&#xA;q7FXYq7FXYq7FXYq7FXYq7FXYq7FXYq7FXYq7FXYq7FXYq7FXYq7FXYq7FXYq7FXYq7FXYq7FXYq&#xA;7FXYq7FXYq7FXYq7FXYq7FXYq7FXYq7FXYq7FXYq7FXYq7FXYq7FXYq7FXYq7FXYq7FXYq7FXYq7&#xA;FXYq7FXYq7FXYq7FXYq7FXYq7FXYq7FXYq7FXYq7FXYq7FXYq7FXYq7FXYq7FXYq7FXYq7FXYq7F&#xA;XYq7FXYq7FXYq7FXYq7FXYq7FXYq7FXYq7FXYq7FXYq7FXYq7FXYq7FXYq7FXYq7FXYq7FXYq7FX&#xA;Yq7FXYq7FXYq7FXYq7FXYq7FXYq7FXYq7FXYq7FXYq7FXYq7FXYq7FXYq7FXYq7FXYq7FXYq7FXY&#xA;q7FXYq7FXYq7FXYq7FXYq7FXYq7FXYq7FXYq7FXYq7FXYq7FXYq7FXYq7FXYq7FXYq7FXYq7FXYq&#xA;7FXYq7FXYq7FXYq7FXYq7FXYq7FXYq7FXYq7FXYq7FXYq7FXYq7FXYq7FXYq7FXYq7FXYq7FXYq7&#xA;FXYq7FXYq7FXYq7FXYq7FXYq7FXYq7FXYq7FXYq7FXYq7FXYq7FXYq7FXYq7FXYq7FXYq7FXYq7F&#xA;XYq7FXYq7FXYq7FXYq7FXYq7FXYq7FXYq7FXYq7FXYq7FXYq7FXYq7FXYq7FXYq7FXYq7FXYq7FX&#xA;Yq7FXYq7FXYq7FXYq7FXYq7FXYq7FXYq7FXYq7FXYq7FXYq7FXYq7FXYq7FXYq7FXYq7FXYq7FXY&#xA;q7FXYq7FXYq7FXYq7FXYq7FXYq7FXYq7FXYq7FXYq7FXYq7FXYq7FXYq7FXYq7FXYq7FXYq7FXYq&#xA;7FXYq7FXYq7FXYq7FXYq7FXYq7FXYq7FXYq7FXYq7FXYq7FXYq7FXYq7FXYq7FXYq7FXYq7FXYq7&#xA;FXYq7FXYq7FXYq7FXYq7FXYq7FXYq7FXYq7FXYq7FXYq7FXYq7FXYq7FXYq7FXYq7FXYq7FXYq7F&#xA;XYq7FXYq7FXYq7FXYq7FXYq7FXYq7FXYq7FXYq7FXYq7FXYq7FXYq7FXYq7FXYq7FXYq7FXYq7FX&#xA;Yq7FXYq7FXYq7FXYq7FXYq7FXYq7FXYq7FXYq7FXYq7FXYq7FXYq7FXYq7FXYq7FXYq7FXYq7FXY&#xA;q7FXYq7FXYq7FXYq7FXYq7FXYq7FXYq7FX//2Q==</xmpGImg:image>
               </rdf:li>
            </rdf:Alt>
         </xmp:Thumbnails>
         <xmpTPg:MaxPageSize rdf:parseType="Resource">
            <stDim:w>298.000000</stDim:w>
            <stDim:h>197.000000</stDim:h>
            <stDim:unit>Pixels</stDim:unit>
         </xmpTPg:MaxPageSize>
         <xmpTPg:NPages>1</xmpTPg:NPages>
         <xmpTPg:HasVisibleTransparency>False</xmpTPg:HasVisibleTransparency>
         <xmpTPg:HasVisibleOverprint>False</xmpTPg:HasVisibleOverprint>
         <xmpTPg:SwatchGroups>
            <rdf:Seq>
               <rdf:li rdf:parseType="Resource">
                  <xmpG:groupName>Default Swatch Group</xmpG:groupName>
                  <xmpG:groupType>0</xmpG:groupType>
               </rdf:li>
            </rdf:Seq>
         </xmpTPg:SwatchGroups>
         <dc:format>image/svg+xml</dc:format>
      </rdf:Description>
   </rdf:RDF>
</x:xmpmeta>
                                                                                                    
                                                                                                    
                                                                                                    
                                                                                                    
                                                                                                    
                                                                                                    
                                                                                                    
                                                                                                    
                                                                                                    
                                                                                                    
                                                                                                    
                                                                                                    
                                                                                                    
                                                                                                    
                                                                                                    
                                                                                                    
                                                                                                    
                                                                                                    
                                                                                                    
                                                                                                    
                           
<?xpacket end="w"?>
  </metadata>
</svg>